<?xml version="1.0" encoding="UTF-8"?>
<svg version="1.1" viewBox="0 0 2000 2000" width="500" height="500" xmlns="http://www.w3.org/2000/svg">
<path transform="translate(1113,1026)" d="m0 0h424l1 1v25l-1 1-397 1-15 1-8 7-3 6-1 6-1 381h103v-291l4-13 9-10 8-5 4-1h297l1 1v25l-1 1-266 1-16 1-6 4-4 6-1 4-1 277 85-1 14-3 14-7 10-9 5-9 1-5 1-138 3-10 6-9 7-7 14-7 9-2h132l1 1v23l-1 1-87 1-31 1-10 4-8 5-6 7-1 2-2 144-4 12-7 9-7 7-11 7-11 5-14 3-135 1-617-1-14-2-12-5-11-7-10-9-6-9-4-12-1-133-1-11-4-6-8-6-13-5-10-1h-80l-1-1v-25h103l13 3 13 7 8 8 5 9 1 3 1 135 2 12 4 8 5 6 11 8 13 5 11 2 91 1h7l-1-251-4-11-6-8-14-7-269-1-1-4v-15l1-9h268l19 1 14 7 10 9 6 9 3 7 1 5 1 14v254h103l-1-368-3-7-4-5-10-6-4-1-403-1-1-8 1-19h416l11 2 12 7 7 8 5 9 1 4 1 384 220 1-1-8 1-392 3-10 5-8 9-7z" fill="#FAB348"/>
<path transform="translate(810,382)" d="m0 0h304l26 1 21 3 21 6 16 6 18 10 12 8 16 13 14 14 11 14 10 15 17 28 15 24 12 19 26 42 15 24 14 23 14 22 16 26 15 24 12 19 16 26 14 23 14 22 16 26 30 48 13 21 11 18 1 5v11l-1 1h-1137l-1-1v-11l4-11 10-17 16-28 30-54 10-17 13-23 8-14 10-18 13-23 10-17 9-17 9-16 16-28 10-17 15-27 10-17 16-29 16-28 14-25 9-15 5-9 10-14 7-9h2l2-4 11-11 14-11 19-12 16-7 21-7 24-4zm8 28-25 2-15 4-20 7-17 9-13 9-11 9-10 9-12 16-8 12-6 11-15 27-14 24-13 23-15 27-9 16-12 20-6 11-13 24-10 17-14 25-10 17-16 29-14 25-10 17-10 18-9 16-8 13-6 11-15 27-6 9v2l3 1h1043l1-2-17-28-13-20-16-26-12-20-15-23-12-20-15-24-13-21-12-19-11-18-26-42-12-19-15-24-26-42-11-18-15-24-13-21-11-15-12-13-12-11-15-11-18-10-15-6-18-6-18-3-19-1z" fill="#FAB348"/>
</svg>
